<svg version="1.1" xmlns="http://www.w3.org/2000/svg" xmlns:xlink="http://www.w3.org/1999/xlink" width="91.28572" height="321" viewBox="0,0,91.28572,321"><g transform="translate(-194.85714,-19.71429)"><g data-paper-data="{&quot;isPaintingLayer&quot;:true}" fill-rule="nonzero" stroke-linecap="butt" stroke-linejoin="miter" stroke-miterlimit="10" stroke-dasharray="" stroke-dashoffset="0" style="mix-blend-mode: normal"><path d="M196.71429,339.71429v-319h88.42857v319z" fill="#000000" stroke="#000000" stroke-width="2"/><path d="M196.71429,339.71429v-319h88.42857v319z" fill="#000000" stroke="#000000" stroke-width="2"/><path d="M196.28572,52.28571v-32h29v32z" fill="#ffffff" stroke="none" stroke-width="0"/><path d="M196.28572,52.28571v-32h29v32z" fill="#ffffff" stroke="none" stroke-width="0"/><path d="M196.28572,52.28571v-32h29v32z" fill="#ffffff" stroke="none" stroke-width="0"/><path d="M225.57143,85.14286v-32h29v32z" fill="#ffffff" stroke="none" stroke-width="0"/><path d="M225.57143,85.14286v-32h29v32z" fill="#ffffff" stroke="none" stroke-width="0"/><path d="M225.57143,85.14286v-32h29v32z" fill="#ffffff" stroke="none" stroke-width="0"/><path d="M225.57143,85.14286v-32h29v32z" fill="#ffffff" stroke="none" stroke-width="0"/><path d="M255.57143,116.57143v-32h29v32z" fill="#ffffff" stroke="none" stroke-width="0"/><path d="M225.57143,148.71429v-32h29v32z" data-paper-data="{&quot;index&quot;:null}" fill="#ffffff" stroke="none" stroke-width="0"/><path d="M194.85714,183v-32h29v32z" data-paper-data="{&quot;index&quot;:null}" fill="#ffffff" stroke="none" stroke-width="0"/><path d="M224.85714,215.14286v-32h29v32z" data-paper-data="{&quot;index&quot;:null}" fill="#ffffff" stroke="none" stroke-width="0"/><path d="M255.57143,249.42857v-32h29v32z" data-paper-data="{&quot;index&quot;:null}" fill="#ffffff" stroke="none" stroke-width="0"/><path d="M225.57143,282.28571v-32h29v32z" data-paper-data="{&quot;index&quot;:null}" fill="#ffffff" stroke="none" stroke-width="0"/><path d="M194.85714,316.57143v-32h29v32z" data-paper-data="{&quot;index&quot;:null}" fill="#ffffff" stroke="none" stroke-width="0"/></g></g></svg>